
<svg xmlns="http://www.w3.org/2000/svg" viewBox="0 0 1366 607" preserveAspectRatio="xMidYMid" width="1366" height="607" style="shape-rendering: auto; display: block; background: rgb(255, 178, 91);" xmlns:xlink="http://www.w3.org/1999/xlink"><g><g transform="translate(-100 263.9239833029002) rotate(0)">
  <animateTransform begin="-8.400854370554015s" repeatCount="indefinite" dur="10s" values="-100 263.9239833029002;1466 998.1365151805834" keyTimes="0;1" type="translate" attributeName="transform"></animateTransform>
  <animateTransform additive="sum" repeatCount="indefinite" dur="10s" values="0 50 50;244.87749599633958 50 50" begin="-8.400854370554015s" keyTimes="0;1" type="rotate" attributeName="transform"></animateTransform>
  <path transform="scale(0.5423511652373447)" fill="#ffc46c" d="M87.422,66.495c-2.009-0.544-4.049-0.97-6.107-1.283c10.617-11.116,15.747-27.37,13.129-42.549 c-5.236,1.77-10.223,4.252-14.824,7.313c-4.13,2.747-7.948,5.961-11.374,9.55C67.425,24.863,61.344,10.451,50.991,0 c-4.015,5.451-7.281,11.444-9.753,17.744c-3.579,9.122-5.501,18.893-5.669,28.691c-4.79-7.979-11.256-14.955-18.858-20.322 c-4.514-3.187-9.431-5.806-14.616-7.72c-3.361,16.717,2.731,35.015,15.445,46.379c0.369,0.33,0.745,0.654,1.126,0.972 c-2.359,0.411-4.689,0.983-6.969,1.714C7.582,68.775,3.634,70.61,0,72.945c8.85,9.963,23.134,14.771,36.208,12.186 c3.524-0.697,7.002-1.919,9.887-4.057c0.073-0.054,0.145-0.111,0.218-0.167c-0.987,5.662-2.714,11.136-5.104,16.221l7.509,2.806 c1.698-5.797,2.631-11.748,2.814-17.669c0.107,0.076,0.215,0.152,0.324,0.225c3.142,2.114,6.863,3.232,10.607,3.796 C76.352,88.379,91.161,82.628,100,71.71C96.061,69.427,91.816,67.684,87.422,66.495z"></path>
</g><g transform="translate(-100 190.8241031191766) rotate(0)">
  <animateTransform begin="-1.1694798879627006s" repeatCount="indefinite" dur="10s" values="-100 190.8241031191766;1466 852.0682874550366" keyTimes="0;1" type="translate" attributeName="transform"></animateTransform>
  <animateTransform additive="sum" repeatCount="indefinite" dur="10s" values="0 50 50;925.7181027984202 50 50" begin="-1.1694798879627006s" keyTimes="0;1" type="rotate" attributeName="transform"></animateTransform>
  <path transform="scale(0.6267063943354403)" fill="#ff956e" d="M87.422,66.495c-2.009-0.544-4.049-0.97-6.107-1.283c10.617-11.116,15.747-27.37,13.129-42.549 c-5.236,1.77-10.223,4.252-14.824,7.313c-4.13,2.747-7.948,5.961-11.374,9.55C67.425,24.863,61.344,10.451,50.991,0 c-4.015,5.451-7.281,11.444-9.753,17.744c-3.579,9.122-5.501,18.893-5.669,28.691c-4.79-7.979-11.256-14.955-18.858-20.322 c-4.514-3.187-9.431-5.806-14.616-7.72c-3.361,16.717,2.731,35.015,15.445,46.379c0.369,0.33,0.745,0.654,1.126,0.972 c-2.359,0.411-4.689,0.983-6.969,1.714C7.582,68.775,3.634,70.61,0,72.945c8.85,9.963,23.134,14.771,36.208,12.186 c3.524-0.697,7.002-1.919,9.887-4.057c0.073-0.054,0.145-0.111,0.218-0.167c-0.987,5.662-2.714,11.136-5.104,16.221l7.509,2.806 c1.698-5.797,2.631-11.748,2.814-17.669c0.107,0.076,0.215,0.152,0.324,0.225c3.142,2.114,6.863,3.232,10.607,3.796 C76.352,88.379,91.161,82.628,100,71.71C96.061,69.427,91.816,67.684,87.422,66.495z"></path>
</g><g transform="translate(-100 256.8380950794304) rotate(0)">
  <animateTransform begin="-0.8365424736077809s" repeatCount="indefinite" dur="10s" values="-100 256.8380950794304;1160.890750720643 707" keyTimes="0;1" type="translate" attributeName="transform"></animateTransform>
  <animateTransform additive="sum" repeatCount="indefinite" dur="10s" values="0 50 50;598.2972897534207 50 50" begin="-0.8365424736077809s" keyTimes="0;1" type="rotate" attributeName="transform"></animateTransform>
  <path transform="scale(0.6184371751455036)" fill="#f86161" d="M87.422,66.495c-2.009-0.544-4.049-0.97-6.107-1.283c10.617-11.116,15.747-27.37,13.129-42.549 c-5.236,1.77-10.223,4.252-14.824,7.313c-4.13,2.747-7.948,5.961-11.374,9.55C67.425,24.863,61.344,10.451,50.991,0 c-4.015,5.451-7.281,11.444-9.753,17.744c-3.579,9.122-5.501,18.893-5.669,28.691c-4.79-7.979-11.256-14.955-18.858-20.322 c-4.514-3.187-9.431-5.806-14.616-7.72c-3.361,16.717,2.731,35.015,15.445,46.379c0.369,0.33,0.745,0.654,1.126,0.972 c-2.359,0.411-4.689,0.983-6.969,1.714C7.582,68.775,3.634,70.61,0,72.945c8.85,9.963,23.134,14.771,36.208,12.186 c3.524-0.697,7.002-1.919,9.887-4.057c0.073-0.054,0.145-0.111,0.218-0.167c-0.987,5.662-2.714,11.136-5.104,16.221l7.509,2.806 c1.698-5.797,2.631-11.748,2.814-17.669c0.107,0.076,0.215,0.152,0.324,0.225c3.142,2.114,6.863,3.232,10.607,3.796 C76.352,88.379,91.161,82.628,100,71.71C96.061,69.427,91.816,67.684,87.422,66.495z"></path>
</g><g transform="translate(-100 6.639261402205046) rotate(0)">
  <animateTransform begin="-7.1951078369326s" repeatCount="indefinite" dur="10s" values="-100 6.639261402205046;650.6092068517584 707" keyTimes="0;1" type="translate" attributeName="transform"></animateTransform>
  <animateTransform additive="sum" repeatCount="indefinite" dur="10s" values="0 50 50;855.1667433070202 50 50" begin="-7.1951078369326s" keyTimes="0;1" type="rotate" attributeName="transform"></animateTransform>
  <path transform="scale(0.8833153983713644)" fill="#f86161" d="M87.422,66.495c-2.009-0.544-4.049-0.97-6.107-1.283c10.617-11.116,15.747-27.37,13.129-42.549 c-5.236,1.77-10.223,4.252-14.824,7.313c-4.13,2.747-7.948,5.961-11.374,9.55C67.425,24.863,61.344,10.451,50.991,0 c-4.015,5.451-7.281,11.444-9.753,17.744c-3.579,9.122-5.501,18.893-5.669,28.691c-4.79-7.979-11.256-14.955-18.858-20.322 c-4.514-3.187-9.431-5.806-14.616-7.72c-3.361,16.717,2.731,35.015,15.445,46.379c0.369,0.33,0.745,0.654,1.126,0.972 c-2.359,0.411-4.689,0.983-6.969,1.714C7.582,68.775,3.634,70.61,0,72.945c8.85,9.963,23.134,14.771,36.208,12.186 c3.524-0.697,7.002-1.919,9.887-4.057c0.073-0.054,0.145-0.111,0.218-0.167c-0.987,5.662-2.714,11.136-5.104,16.221l7.509,2.806 c1.698-5.797,2.631-11.748,2.814-17.669c0.107,0.076,0.215,0.152,0.324,0.225c3.142,2.114,6.863,3.232,10.607,3.796 C76.352,88.379,91.161,82.628,100,71.71C96.061,69.427,91.816,67.684,87.422,66.495z"></path>
</g><g transform="translate(472.9699557885454 -100) rotate(0)">
  <animateTransform begin="-3.037847206857078s" repeatCount="indefinite" dur="10s" values="472.9699557885454 -100;1466 340.910545108811" keyTimes="0;1" type="translate" attributeName="transform"></animateTransform>
  <animateTransform additive="sum" repeatCount="indefinite" dur="10s" values="0 50 50;433.9697049378885 50 50" begin="-3.037847206857078s" keyTimes="0;1" type="rotate" attributeName="transform"></animateTransform>
  <path transform="scale(0.9074116174432334)" fill="#ff956e" d="M87.422,66.495c-2.009-0.544-4.049-0.97-6.107-1.283c10.617-11.116,15.747-27.37,13.129-42.549 c-5.236,1.77-10.223,4.252-14.824,7.313c-4.13,2.747-7.948,5.961-11.374,9.55C67.425,24.863,61.344,10.451,50.991,0 c-4.015,5.451-7.281,11.444-9.753,17.744c-3.579,9.122-5.501,18.893-5.669,28.691c-4.79-7.979-11.256-14.955-18.858-20.322 c-4.514-3.187-9.431-5.806-14.616-7.72c-3.361,16.717,2.731,35.015,15.445,46.379c0.369,0.33,0.745,0.654,1.126,0.972 c-2.359,0.411-4.689,0.983-6.969,1.714C7.582,68.775,3.634,70.61,0,72.945c8.85,9.963,23.134,14.771,36.208,12.186 c3.524-0.697,7.002-1.919,9.887-4.057c0.073-0.054,0.145-0.111,0.218-0.167c-0.987,5.662-2.714,11.136-5.104,16.221l7.509,2.806 c1.698-5.797,2.631-11.748,2.814-17.669c0.107,0.076,0.215,0.152,0.324,0.225c3.142,2.114,6.863,3.232,10.607,3.796 C76.352,88.379,91.161,82.628,100,71.71C96.061,69.427,91.816,67.684,87.422,66.495z"></path>
</g><g transform="translate(641.5516486427521 -100) rotate(0)">
  <animateTransform begin="-7.45093120695112s" repeatCount="indefinite" dur="10s" values="641.5516486427521 -100;1466 642.7071815638444" keyTimes="0;1" type="translate" attributeName="transform"></animateTransform>
  <animateTransform additive="sum" repeatCount="indefinite" dur="10s" values="0 50 50;185.85480564085904 50 50" begin="-7.45093120695112s" keyTimes="0;1" type="rotate" attributeName="transform"></animateTransform>
  <path transform="scale(1.110121671715468)" fill="#f86161" d="M87.422,66.495c-2.009-0.544-4.049-0.97-6.107-1.283c10.617-11.116,15.747-27.37,13.129-42.549 c-5.236,1.77-10.223,4.252-14.824,7.313c-4.13,2.747-7.948,5.961-11.374,9.55C67.425,24.863,61.344,10.451,50.991,0 c-4.015,5.451-7.281,11.444-9.753,17.744c-3.579,9.122-5.501,18.893-5.669,28.691c-4.79-7.979-11.256-14.955-18.858-20.322 c-4.514-3.187-9.431-5.806-14.616-7.72c-3.361,16.717,2.731,35.015,15.445,46.379c0.369,0.33,0.745,0.654,1.126,0.972 c-2.359,0.411-4.689,0.983-6.969,1.714C7.582,68.775,3.634,70.61,0,72.945c8.85,9.963,23.134,14.771,36.208,12.186 c3.524-0.697,7.002-1.919,9.887-4.057c0.073-0.054,0.145-0.111,0.218-0.167c-0.987,5.662-2.714,11.136-5.104,16.221l7.509,2.806 c1.698-5.797,2.631-11.748,2.814-17.669c0.107,0.076,0.215,0.152,0.324,0.225c3.142,2.114,6.863,3.232,10.607,3.796 C76.352,88.379,91.161,82.628,100,71.71C96.061,69.427,91.816,67.684,87.422,66.495z"></path>
</g><g transform="translate(-100 242.16300393083898) rotate(0)">
  <animateTransform begin="-2.4564069868573344s" repeatCount="indefinite" dur="10s" values="-100 242.16300393083898;1466 854.1866367254161" keyTimes="0;1" type="translate" attributeName="transform"></animateTransform>
  <animateTransform additive="sum" repeatCount="indefinite" dur="10s" values="0 50 50;615.64524022894 50 50" begin="-2.4564069868573344s" keyTimes="0;1" type="rotate" attributeName="transform"></animateTransform>
  <path transform="scale(1.0475431643495516)" fill="#f86161" d="M87.422,66.495c-2.009-0.544-4.049-0.97-6.107-1.283c10.617-11.116,15.747-27.37,13.129-42.549 c-5.236,1.77-10.223,4.252-14.824,7.313c-4.13,2.747-7.948,5.961-11.374,9.55C67.425,24.863,61.344,10.451,50.991,0 c-4.015,5.451-7.281,11.444-9.753,17.744c-3.579,9.122-5.501,18.893-5.669,28.691c-4.79-7.979-11.256-14.955-18.858-20.322 c-4.514-3.187-9.431-5.806-14.616-7.72c-3.361,16.717,2.731,35.015,15.445,46.379c0.369,0.33,0.745,0.654,1.126,0.972 c-2.359,0.411-4.689,0.983-6.969,1.714C7.582,68.775,3.634,70.61,0,72.945c8.85,9.963,23.134,14.771,36.208,12.186 c3.524-0.697,7.002-1.919,9.887-4.057c0.073-0.054,0.145-0.111,0.218-0.167c-0.987,5.662-2.714,11.136-5.104,16.221l7.509,2.806 c1.698-5.797,2.631-11.748,2.814-17.669c0.107,0.076,0.215,0.152,0.324,0.225c3.142,2.114,6.863,3.232,10.607,3.796 C76.352,88.379,91.161,82.628,100,71.71C96.061,69.427,91.816,67.684,87.422,66.495z"></path>
</g><g transform="translate(-100 254.77136206742696) rotate(0)">
  <animateTransform begin="-4.300254939032672s" repeatCount="indefinite" dur="10s" values="-100 254.77136206742696;775.8203697047194 707" keyTimes="0;1" type="translate" attributeName="transform"></animateTransform>
  <animateTransform additive="sum" repeatCount="indefinite" dur="10s" values="0 50 50;27.206121494103712 50 50" begin="-4.300254939032672s" keyTimes="0;1" type="rotate" attributeName="transform"></animateTransform>
  <path transform="scale(1.076273507566187)" fill="#f86161" d="M87.422,66.495c-2.009-0.544-4.049-0.97-6.107-1.283c10.617-11.116,15.747-27.37,13.129-42.549 c-5.236,1.77-10.223,4.252-14.824,7.313c-4.13,2.747-7.948,5.961-11.374,9.55C67.425,24.863,61.344,10.451,50.991,0 c-4.015,5.451-7.281,11.444-9.753,17.744c-3.579,9.122-5.501,18.893-5.669,28.691c-4.79-7.979-11.256-14.955-18.858-20.322 c-4.514-3.187-9.431-5.806-14.616-7.72c-3.361,16.717,2.731,35.015,15.445,46.379c0.369,0.33,0.745,0.654,1.126,0.972 c-2.359,0.411-4.689,0.983-6.969,1.714C7.582,68.775,3.634,70.61,0,72.945c8.85,9.963,23.134,14.771,36.208,12.186 c3.524-0.697,7.002-1.919,9.887-4.057c0.073-0.054,0.145-0.111,0.218-0.167c-0.987,5.662-2.714,11.136-5.104,16.221l7.509,2.806 c1.698-5.797,2.631-11.748,2.814-17.669c0.107,0.076,0.215,0.152,0.324,0.225c3.142,2.114,6.863,3.232,10.607,3.796 C76.352,88.379,91.161,82.628,100,71.71C96.061,69.427,91.816,67.684,87.422,66.495z"></path>
</g><g transform="translate(-100 92.40379955049968) rotate(0)">
  <animateTransform begin="-6.422407569603341s" repeatCount="indefinite" dur="10s" values="-100 92.40379955049968;1698.1332115822665 707" keyTimes="0;1" type="translate" attributeName="transform"></animateTransform>
  <animateTransform additive="sum" repeatCount="indefinite" dur="10s" values="0 50 50;61.41618344439244 50 50" begin="-6.422407569603341s" keyTimes="0;1" type="rotate" attributeName="transform"></animateTransform>
  <path transform="scale(0.7015542270833056)" fill="#ffc46c" d="M87.422,66.495c-2.009-0.544-4.049-0.97-6.107-1.283c10.617-11.116,15.747-27.37,13.129-42.549 c-5.236,1.77-10.223,4.252-14.824,7.313c-4.13,2.747-7.948,5.961-11.374,9.55C67.425,24.863,61.344,10.451,50.991,0 c-4.015,5.451-7.281,11.444-9.753,17.744c-3.579,9.122-5.501,18.893-5.669,28.691c-4.79-7.979-11.256-14.955-18.858-20.322 c-4.514-3.187-9.431-5.806-14.616-7.72c-3.361,16.717,2.731,35.015,15.445,46.379c0.369,0.33,0.745,0.654,1.126,0.972 c-2.359,0.411-4.689,0.983-6.969,1.714C7.582,68.775,3.634,70.61,0,72.945c8.85,9.963,23.134,14.771,36.208,12.186 c3.524-0.697,7.002-1.919,9.887-4.057c0.073-0.054,0.145-0.111,0.218-0.167c-0.987,5.662-2.714,11.136-5.104,16.221l7.509,2.806 c1.698-5.797,2.631-11.748,2.814-17.669c0.107,0.076,0.215,0.152,0.324,0.225c3.142,2.114,6.863,3.232,10.607,3.796 C76.352,88.379,91.161,82.628,100,71.71C96.061,69.427,91.816,67.684,87.422,66.495z"></path>
</g><g transform="translate(864.4498882350168 -100) rotate(0)">
  <animateTransform begin="-0.1548958785914354s" repeatCount="indefinite" dur="10s" values="864.4498882350168 -100;2708.031726403569 707" keyTimes="0;1" type="translate" attributeName="transform"></animateTransform>
  <animateTransform additive="sum" repeatCount="indefinite" dur="10s" values="0 50 50;179.22199204850696 50 50" begin="-0.1548958785914354s" keyTimes="0;1" type="rotate" attributeName="transform"></animateTransform>
  <path transform="scale(0.8693379446829541)" fill="#ffc46c" d="M87.422,66.495c-2.009-0.544-4.049-0.97-6.107-1.283c10.617-11.116,15.747-27.37,13.129-42.549 c-5.236,1.77-10.223,4.252-14.824,7.313c-4.13,2.747-7.948,5.961-11.374,9.55C67.425,24.863,61.344,10.451,50.991,0 c-4.015,5.451-7.281,11.444-9.753,17.744c-3.579,9.122-5.501,18.893-5.669,28.691c-4.79-7.979-11.256-14.955-18.858-20.322 c-4.514-3.187-9.431-5.806-14.616-7.72c-3.361,16.717,2.731,35.015,15.445,46.379c0.369,0.33,0.745,0.654,1.126,0.972 c-2.359,0.411-4.689,0.983-6.969,1.714C7.582,68.775,3.634,70.61,0,72.945c8.85,9.963,23.134,14.771,36.208,12.186 c3.524-0.697,7.002-1.919,9.887-4.057c0.073-0.054,0.145-0.111,0.218-0.167c-0.987,5.662-2.714,11.136-5.104,16.221l7.509,2.806 c1.698-5.797,2.631-11.748,2.814-17.669c0.107,0.076,0.215,0.152,0.324,0.225c3.142,2.114,6.863,3.232,10.607,3.796 C76.352,88.379,91.161,82.628,100,71.71C96.061,69.427,91.816,67.684,87.422,66.495z"></path>
</g><g transform="translate(-100 292.59114421191583) rotate(0)">
  <animateTransform begin="-2.2775195439357168s" repeatCount="indefinite" dur="10s" values="-100 292.59114421191583;1106.0718787904696 707" keyTimes="0;1" type="translate" attributeName="transform"></animateTransform>
  <animateTransform additive="sum" repeatCount="indefinite" dur="10s" values="0 50 50;74.05764700727266 50 50" begin="-2.2775195439357168s" keyTimes="0;1" type="rotate" attributeName="transform"></animateTransform>
  <path transform="scale(0.9615935351978134)" fill="#ff956e" d="M87.422,66.495c-2.009-0.544-4.049-0.97-6.107-1.283c10.617-11.116,15.747-27.37,13.129-42.549 c-5.236,1.77-10.223,4.252-14.824,7.313c-4.13,2.747-7.948,5.961-11.374,9.55C67.425,24.863,61.344,10.451,50.991,0 c-4.015,5.451-7.281,11.444-9.753,17.744c-3.579,9.122-5.501,18.893-5.669,28.691c-4.79-7.979-11.256-14.955-18.858-20.322 c-4.514-3.187-9.431-5.806-14.616-7.72c-3.361,16.717,2.731,35.015,15.445,46.379c0.369,0.33,0.745,0.654,1.126,0.972 c-2.359,0.411-4.689,0.983-6.969,1.714C7.582,68.775,3.634,70.61,0,72.945c8.85,9.963,23.134,14.771,36.208,12.186 c3.524-0.697,7.002-1.919,9.887-4.057c0.073-0.054,0.145-0.111,0.218-0.167c-0.987,5.662-2.714,11.136-5.104,16.221l7.509,2.806 c1.698-5.797,2.631-11.748,2.814-17.669c0.107,0.076,0.215,0.152,0.324,0.225c3.142,2.114,6.863,3.232,10.607,3.796 C76.352,88.379,91.161,82.628,100,71.71C96.061,69.427,91.816,67.684,87.422,66.495z"></path>
</g><g transform="translate(-100 11.17795274960587) rotate(0)">
  <animateTransform begin="-8.862362441932717s" repeatCount="indefinite" dur="10s" values="-100 11.17795274960587;1466 363.6607718486336" keyTimes="0;1" type="translate" attributeName="transform"></animateTransform>
  <animateTransform additive="sum" repeatCount="indefinite" dur="10s" values="0 50 50;828.5472980088716 50 50" begin="-8.862362441932717s" keyTimes="0;1" type="rotate" attributeName="transform"></animateTransform>
  <path transform="scale(1.1145963742911122)" fill="#ffc46c" d="M87.422,66.495c-2.009-0.544-4.049-0.97-6.107-1.283c10.617-11.116,15.747-27.37,13.129-42.549 c-5.236,1.77-10.223,4.252-14.824,7.313c-4.13,2.747-7.948,5.961-11.374,9.55C67.425,24.863,61.344,10.451,50.991,0 c-4.015,5.451-7.281,11.444-9.753,17.744c-3.579,9.122-5.501,18.893-5.669,28.691c-4.79-7.979-11.256-14.955-18.858-20.322 c-4.514-3.187-9.431-5.806-14.616-7.72c-3.361,16.717,2.731,35.015,15.445,46.379c0.369,0.33,0.745,0.654,1.126,0.972 c-2.359,0.411-4.689,0.983-6.969,1.714C7.582,68.775,3.634,70.61,0,72.945c8.85,9.963,23.134,14.771,36.208,12.186 c3.524-0.697,7.002-1.919,9.887-4.057c0.073-0.054,0.145-0.111,0.218-0.167c-0.987,5.662-2.714,11.136-5.104,16.221l7.509,2.806 c1.698-5.797,2.631-11.748,2.814-17.669c0.107,0.076,0.215,0.152,0.324,0.225c3.142,2.114,6.863,3.232,10.607,3.796 C76.352,88.379,91.161,82.628,100,71.71C96.061,69.427,91.816,67.684,87.422,66.495z"></path>
</g><g transform="translate(1309.5804644668087 -100) rotate(0)">
  <animateTransform begin="-9.531514445934555s" repeatCount="indefinite" dur="10s" values="1309.5804644668087 -100;2400.8050212815133 707" keyTimes="0;1" type="translate" attributeName="transform"></animateTransform>
  <animateTransform additive="sum" repeatCount="indefinite" dur="10s" values="0 50 50;554.8658367836783 50 50" begin="-9.531514445934555s" keyTimes="0;1" type="rotate" attributeName="transform"></animateTransform>
  <path transform="scale(0.7104958517412984)" fill="#ff9f32" d="M87.422,66.495c-2.009-0.544-4.049-0.97-6.107-1.283c10.617-11.116,15.747-27.37,13.129-42.549 c-5.236,1.77-10.223,4.252-14.824,7.313c-4.13,2.747-7.948,5.961-11.374,9.55C67.425,24.863,61.344,10.451,50.991,0 c-4.015,5.451-7.281,11.444-9.753,17.744c-3.579,9.122-5.501,18.893-5.669,28.691c-4.79-7.979-11.256-14.955-18.858-20.322 c-4.514-3.187-9.431-5.806-14.616-7.72c-3.361,16.717,2.731,35.015,15.445,46.379c0.369,0.33,0.745,0.654,1.126,0.972 c-2.359,0.411-4.689,0.983-6.969,1.714C7.582,68.775,3.634,70.61,0,72.945c8.85,9.963,23.134,14.771,36.208,12.186 c3.524-0.697,7.002-1.919,9.887-4.057c0.073-0.054,0.145-0.111,0.218-0.167c-0.987,5.662-2.714,11.136-5.104,16.221l7.509,2.806 c1.698-5.797,2.631-11.748,2.814-17.669c0.107,0.076,0.215,0.152,0.324,0.225c3.142,2.114,6.863,3.232,10.607,3.796 C76.352,88.379,91.161,82.628,100,71.71C96.061,69.427,91.816,67.684,87.422,66.495z"></path>
</g><g transform="translate(-100 245.7508336232925) rotate(0)">
  <animateTransform begin="-8.710373801602104s" repeatCount="indefinite" dur="10s" values="-100 245.7508336232925;1090.2871440653023 707" keyTimes="0;1" type="translate" attributeName="transform"></animateTransform>
  <animateTransform additive="sum" repeatCount="indefinite" dur="10s" values="0 50 50;1027.2636497338917 50 50" begin="-8.710373801602104s" keyTimes="0;1" type="rotate" attributeName="transform"></animateTransform>
  <path transform="scale(0.5275961762587449)" fill="#ff956e" d="M87.422,66.495c-2.009-0.544-4.049-0.97-6.107-1.283c10.617-11.116,15.747-27.37,13.129-42.549 c-5.236,1.77-10.223,4.252-14.824,7.313c-4.13,2.747-7.948,5.961-11.374,9.55C67.425,24.863,61.344,10.451,50.991,0 c-4.015,5.451-7.281,11.444-9.753,17.744c-3.579,9.122-5.501,18.893-5.669,28.691c-4.79-7.979-11.256-14.955-18.858-20.322 c-4.514-3.187-9.431-5.806-14.616-7.72c-3.361,16.717,2.731,35.015,15.445,46.379c0.369,0.33,0.745,0.654,1.126,0.972 c-2.359,0.411-4.689,0.983-6.969,1.714C7.582,68.775,3.634,70.61,0,72.945c8.85,9.963,23.134,14.771,36.208,12.186 c3.524-0.697,7.002-1.919,9.887-4.057c0.073-0.054,0.145-0.111,0.218-0.167c-0.987,5.662-2.714,11.136-5.104,16.221l7.509,2.806 c1.698-5.797,2.631-11.748,2.814-17.669c0.107,0.076,0.215,0.152,0.324,0.225c3.142,2.114,6.863,3.232,10.607,3.796 C76.352,88.379,91.161,82.628,100,71.71C96.061,69.427,91.816,67.684,87.422,66.495z"></path>
</g><g transform="translate(362.6575818603513 -100) rotate(0)">
  <animateTransform begin="-8.316338435929362s" repeatCount="indefinite" dur="10s" values="362.6575818603513 -100;1466 657.7422525959003" keyTimes="0;1" type="translate" attributeName="transform"></animateTransform>
  <animateTransform additive="sum" repeatCount="indefinite" dur="10s" values="0 50 50;611.2272557039311 50 50" begin="-8.316338435929362s" keyTimes="0;1" type="rotate" attributeName="transform"></animateTransform>
  <path transform="scale(0.7049118491717193)" fill="#f86161" d="M87.422,66.495c-2.009-0.544-4.049-0.97-6.107-1.283c10.617-11.116,15.747-27.37,13.129-42.549 c-5.236,1.77-10.223,4.252-14.824,7.313c-4.13,2.747-7.948,5.961-11.374,9.55C67.425,24.863,61.344,10.451,50.991,0 c-4.015,5.451-7.281,11.444-9.753,17.744c-3.579,9.122-5.501,18.893-5.669,28.691c-4.79-7.979-11.256-14.955-18.858-20.322 c-4.514-3.187-9.431-5.806-14.616-7.72c-3.361,16.717,2.731,35.015,15.445,46.379c0.369,0.33,0.745,0.654,1.126,0.972 c-2.359,0.411-4.689,0.983-6.969,1.714C7.582,68.775,3.634,70.61,0,72.945c8.85,9.963,23.134,14.771,36.208,12.186 c3.524-0.697,7.002-1.919,9.887-4.057c0.073-0.054,0.145-0.111,0.218-0.167c-0.987,5.662-2.714,11.136-5.104,16.221l7.509,2.806 c1.698-5.797,2.631-11.748,2.814-17.669c0.107,0.076,0.215,0.152,0.324,0.225c3.142,2.114,6.863,3.232,10.607,3.796 C76.352,88.379,91.161,82.628,100,71.71C96.061,69.427,91.816,67.684,87.422,66.495z"></path>
</g><g transform="translate(-100 3.376717955800057) rotate(0)">
  <animateTransform begin="-1.82449130083371s" repeatCount="indefinite" dur="10s" values="-100 3.376717955800057;1838.2465890431038 707" keyTimes="0;1" type="translate" attributeName="transform"></animateTransform>
  <animateTransform additive="sum" repeatCount="indefinite" dur="10s" values="0 50 50;335.77396604780745 50 50" begin="-1.82449130083371s" keyTimes="0;1" type="rotate" attributeName="transform"></animateTransform>
  <path transform="scale(0.6925639005898336)" fill="#ff9f32" d="M87.422,66.495c-2.009-0.544-4.049-0.97-6.107-1.283c10.617-11.116,15.747-27.37,13.129-42.549 c-5.236,1.77-10.223,4.252-14.824,7.313c-4.13,2.747-7.948,5.961-11.374,9.55C67.425,24.863,61.344,10.451,50.991,0 c-4.015,5.451-7.281,11.444-9.753,17.744c-3.579,9.122-5.501,18.893-5.669,28.691c-4.79-7.979-11.256-14.955-18.858-20.322 c-4.514-3.187-9.431-5.806-14.616-7.72c-3.361,16.717,2.731,35.015,15.445,46.379c0.369,0.33,0.745,0.654,1.126,0.972 c-2.359,0.411-4.689,0.983-6.969,1.714C7.582,68.775,3.634,70.61,0,72.945c8.85,9.963,23.134,14.771,36.208,12.186 c3.524-0.697,7.002-1.919,9.887-4.057c0.073-0.054,0.145-0.111,0.218-0.167c-0.987,5.662-2.714,11.136-5.104,16.221l7.509,2.806 c1.698-5.797,2.631-11.748,2.814-17.669c0.107,0.076,0.215,0.152,0.324,0.225c3.142,2.114,6.863,3.232,10.607,3.796 C76.352,88.379,91.161,82.628,100,71.71C96.061,69.427,91.816,67.684,87.422,66.495z"></path>
</g><g transform="translate(-100 269.8943024959286) rotate(0)">
  <animateTransform begin="-5.006570064544583s" repeatCount="indefinite" dur="10s" values="-100 269.8943024959286;1466 774.8253102168189" keyTimes="0;1" type="translate" attributeName="transform"></animateTransform>
  <animateTransform additive="sum" repeatCount="indefinite" dur="10s" values="0 50 50;51.16886823385414 50 50" begin="-5.006570064544583s" keyTimes="0;1" type="rotate" attributeName="transform"></animateTransform>
  <path transform="scale(0.8214876992994526)" fill="#ff9f32" d="M87.422,66.495c-2.009-0.544-4.049-0.97-6.107-1.283c10.617-11.116,15.747-27.37,13.129-42.549 c-5.236,1.77-10.223,4.252-14.824,7.313c-4.13,2.747-7.948,5.961-11.374,9.55C67.425,24.863,61.344,10.451,50.991,0 c-4.015,5.451-7.281,11.444-9.753,17.744c-3.579,9.122-5.501,18.893-5.669,28.691c-4.79-7.979-11.256-14.955-18.858-20.322 c-4.514-3.187-9.431-5.806-14.616-7.72c-3.361,16.717,2.731,35.015,15.445,46.379c0.369,0.33,0.745,0.654,1.126,0.972 c-2.359,0.411-4.689,0.983-6.969,1.714C7.582,68.775,3.634,70.61,0,72.945c8.85,9.963,23.134,14.771,36.208,12.186 c3.524-0.697,7.002-1.919,9.887-4.057c0.073-0.054,0.145-0.111,0.218-0.167c-0.987,5.662-2.714,11.136-5.104,16.221l7.509,2.806 c1.698-5.797,2.631-11.748,2.814-17.669c0.107,0.076,0.215,0.152,0.324,0.225c3.142,2.114,6.863,3.232,10.607,3.796 C76.352,88.379,91.161,82.628,100,71.71C96.061,69.427,91.816,67.684,87.422,66.495z"></path>
</g><g transform="translate(-100 282.03691712950985) rotate(0)">
  <animateTransform begin="-1.7641762791394269s" repeatCount="indefinite" dur="10s" values="-100 282.03691712950985;1466 859.9986987874836" keyTimes="0;1" type="translate" attributeName="transform"></animateTransform>
  <animateTransform additive="sum" repeatCount="indefinite" dur="10s" values="0 50 50;305.186774374563 50 50" begin="-1.7641762791394269s" keyTimes="0;1" type="rotate" attributeName="transform"></animateTransform>
  <path transform="scale(1.1116444118545599)" fill="#ffc46c" d="M87.422,66.495c-2.009-0.544-4.049-0.97-6.107-1.283c10.617-11.116,15.747-27.37,13.129-42.549 c-5.236,1.77-10.223,4.252-14.824,7.313c-4.13,2.747-7.948,5.961-11.374,9.55C67.425,24.863,61.344,10.451,50.991,0 c-4.015,5.451-7.281,11.444-9.753,17.744c-3.579,9.122-5.501,18.893-5.669,28.691c-4.79-7.979-11.256-14.955-18.858-20.322 c-4.514-3.187-9.431-5.806-14.616-7.72c-3.361,16.717,2.731,35.015,15.445,46.379c0.369,0.33,0.745,0.654,1.126,0.972 c-2.359,0.411-4.689,0.983-6.969,1.714C7.582,68.775,3.634,70.61,0,72.945c8.85,9.963,23.134,14.771,36.208,12.186 c3.524-0.697,7.002-1.919,9.887-4.057c0.073-0.054,0.145-0.111,0.218-0.167c-0.987,5.662-2.714,11.136-5.104,16.221l7.509,2.806 c1.698-5.797,2.631-11.748,2.814-17.669c0.107,0.076,0.215,0.152,0.324,0.225c3.142,2.114,6.863,3.232,10.607,3.796 C76.352,88.379,91.161,82.628,100,71.71C96.061,69.427,91.816,67.684,87.422,66.495z"></path>
</g><g transform="translate(1162.6473040800277 -100) rotate(0)">
  <animateTransform begin="-3.860742748542578s" repeatCount="indefinite" dur="10s" values="1162.6473040800277 -100;2134.267100958122 707" keyTimes="0;1" type="translate" attributeName="transform"></animateTransform>
  <animateTransform additive="sum" repeatCount="indefinite" dur="10s" values="0 50 50;857.405175233409 50 50" begin="-3.860742748542578s" keyTimes="0;1" type="rotate" attributeName="transform"></animateTransform>
  <path transform="scale(0.6973280678845963)" fill="#ffc46c" d="M87.422,66.495c-2.009-0.544-4.049-0.97-6.107-1.283c10.617-11.116,15.747-27.37,13.129-42.549 c-5.236,1.77-10.223,4.252-14.824,7.313c-4.13,2.747-7.948,5.961-11.374,9.55C67.425,24.863,61.344,10.451,50.991,0 c-4.015,5.451-7.281,11.444-9.753,17.744c-3.579,9.122-5.501,18.893-5.669,28.691c-4.79-7.979-11.256-14.955-18.858-20.322 c-4.514-3.187-9.431-5.806-14.616-7.72c-3.361,16.717,2.731,35.015,15.445,46.379c0.369,0.33,0.745,0.654,1.126,0.972 c-2.359,0.411-4.689,0.983-6.969,1.714C7.582,68.775,3.634,70.61,0,72.945c8.85,9.963,23.134,14.771,36.208,12.186 c3.524-0.697,7.002-1.919,9.887-4.057c0.073-0.054,0.145-0.111,0.218-0.167c-0.987,5.662-2.714,11.136-5.104,16.221l7.509,2.806 c1.698-5.797,2.631-11.748,2.814-17.669c0.107,0.076,0.215,0.152,0.324,0.225c3.142,2.114,6.863,3.232,10.607,3.796 C76.352,88.379,91.161,82.628,100,71.71C96.061,69.427,91.816,67.684,87.422,66.495z"></path>
</g><g transform="translate(840.3125311698952 -100) rotate(0)">
  <animateTransform begin="-0.9295573497620213s" repeatCount="indefinite" dur="10s" values="840.3125311698952 -100;1558.9294331226483 707" keyTimes="0;1" type="translate" attributeName="transform"></animateTransform>
  <animateTransform additive="sum" repeatCount="indefinite" dur="10s" values="0 50 50;1036.2312143666159 50 50" begin="-0.9295573497620213s" keyTimes="0;1" type="rotate" attributeName="transform"></animateTransform>
  <path transform="scale(0.9560995835065127)" fill="#ffc46c" d="M87.422,66.495c-2.009-0.544-4.049-0.97-6.107-1.283c10.617-11.116,15.747-27.37,13.129-42.549 c-5.236,1.77-10.223,4.252-14.824,7.313c-4.13,2.747-7.948,5.961-11.374,9.55C67.425,24.863,61.344,10.451,50.991,0 c-4.015,5.451-7.281,11.444-9.753,17.744c-3.579,9.122-5.501,18.893-5.669,28.691c-4.79-7.979-11.256-14.955-18.858-20.322 c-4.514-3.187-9.431-5.806-14.616-7.72c-3.361,16.717,2.731,35.015,15.445,46.379c0.369,0.33,0.745,0.654,1.126,0.972 c-2.359,0.411-4.689,0.983-6.969,1.714C7.582,68.775,3.634,70.61,0,72.945c8.85,9.963,23.134,14.771,36.208,12.186 c3.524-0.697,7.002-1.919,9.887-4.057c0.073-0.054,0.145-0.111,0.218-0.167c-0.987,5.662-2.714,11.136-5.104,16.221l7.509,2.806 c1.698-5.797,2.631-11.748,2.814-17.669c0.107,0.076,0.215,0.152,0.324,0.225c3.142,2.114,6.863,3.232,10.607,3.796 C76.352,88.379,91.161,82.628,100,71.71C96.061,69.427,91.816,67.684,87.422,66.495z"></path>
</g><g transform="translate(795.8855771521276 -100) rotate(0)">
  <animateTransform begin="-9.18832657043205s" repeatCount="indefinite" dur="10s" values="795.8855771521276 -100;1466 798.003013188097" keyTimes="0;1" type="translate" attributeName="transform"></animateTransform>
  <animateTransform additive="sum" repeatCount="indefinite" dur="10s" values="0 50 50;75.74282548159233 50 50" begin="-9.18832657043205s" keyTimes="0;1" type="rotate" attributeName="transform"></animateTransform>
  <path transform="scale(0.9844849172874366)" fill="#ff9f32" d="M87.422,66.495c-2.009-0.544-4.049-0.97-6.107-1.283c10.617-11.116,15.747-27.37,13.129-42.549 c-5.236,1.77-10.223,4.252-14.824,7.313c-4.13,2.747-7.948,5.961-11.374,9.55C67.425,24.863,61.344,10.451,50.991,0 c-4.015,5.451-7.281,11.444-9.753,17.744c-3.579,9.122-5.501,18.893-5.669,28.691c-4.79-7.979-11.256-14.955-18.858-20.322 c-4.514-3.187-9.431-5.806-14.616-7.72c-3.361,16.717,2.731,35.015,15.445,46.379c0.369,0.33,0.745,0.654,1.126,0.972 c-2.359,0.411-4.689,0.983-6.969,1.714C7.582,68.775,3.634,70.61,0,72.945c8.85,9.963,23.134,14.771,36.208,12.186 c3.524-0.697,7.002-1.919,9.887-4.057c0.073-0.054,0.145-0.111,0.218-0.167c-0.987,5.662-2.714,11.136-5.104,16.221l7.509,2.806 c1.698-5.797,2.631-11.748,2.814-17.669c0.107,0.076,0.215,0.152,0.324,0.225c3.142,2.114,6.863,3.232,10.607,3.796 C76.352,88.379,91.161,82.628,100,71.71C96.061,69.427,91.816,67.684,87.422,66.495z"></path>
</g><g transform="translate(-100 197.33929439231142) rotate(0)">
  <animateTransform begin="-9.037264994685263s" repeatCount="indefinite" dur="10s" values="-100 197.33929439231142;1025.407977508164 707" keyTimes="0;1" type="translate" attributeName="transform"></animateTransform>
  <animateTransform additive="sum" repeatCount="indefinite" dur="10s" values="0 50 50;277.3250280662696 50 50" begin="-9.037264994685263s" keyTimes="0;1" type="rotate" attributeName="transform"></animateTransform>
  <path transform="scale(0.7904956869295613)" fill="#f86161" d="M87.422,66.495c-2.009-0.544-4.049-0.97-6.107-1.283c10.617-11.116,15.747-27.37,13.129-42.549 c-5.236,1.77-10.223,4.252-14.824,7.313c-4.13,2.747-7.948,5.961-11.374,9.55C67.425,24.863,61.344,10.451,50.991,0 c-4.015,5.451-7.281,11.444-9.753,17.744c-3.579,9.122-5.501,18.893-5.669,28.691c-4.79-7.979-11.256-14.955-18.858-20.322 c-4.514-3.187-9.431-5.806-14.616-7.72c-3.361,16.717,2.731,35.015,15.445,46.379c0.369,0.33,0.745,0.654,1.126,0.972 c-2.359,0.411-4.689,0.983-6.969,1.714C7.582,68.775,3.634,70.61,0,72.945c8.85,9.963,23.134,14.771,36.208,12.186 c3.524-0.697,7.002-1.919,9.887-4.057c0.073-0.054,0.145-0.111,0.218-0.167c-0.987,5.662-2.714,11.136-5.104,16.221l7.509,2.806 c1.698-5.797,2.631-11.748,2.814-17.669c0.107,0.076,0.215,0.152,0.324,0.225c3.142,2.114,6.863,3.232,10.607,3.796 C76.352,88.379,91.161,82.628,100,71.71C96.061,69.427,91.816,67.684,87.422,66.495z"></path>
</g><g transform="translate(-100 30.164119823445827) rotate(0)">
  <animateTransform begin="-8.393905013604275s" repeatCount="indefinite" dur="10s" values="-100 30.164119823445827;1466 735.6561929470878" keyTimes="0;1" type="translate" attributeName="transform"></animateTransform>
  <animateTransform additive="sum" repeatCount="indefinite" dur="10s" values="0 50 50;673.425119630008 50 50" begin="-8.393905013604275s" keyTimes="0;1" type="rotate" attributeName="transform"></animateTransform>
  <path transform="scale(0.8634266798579153)" fill="#ff956e" d="M87.422,66.495c-2.009-0.544-4.049-0.97-6.107-1.283c10.617-11.116,15.747-27.37,13.129-42.549 c-5.236,1.77-10.223,4.252-14.824,7.313c-4.13,2.747-7.948,5.961-11.374,9.55C67.425,24.863,61.344,10.451,50.991,0 c-4.015,5.451-7.281,11.444-9.753,17.744c-3.579,9.122-5.501,18.893-5.669,28.691c-4.79-7.979-11.256-14.955-18.858-20.322 c-4.514-3.187-9.431-5.806-14.616-7.72c-3.361,16.717,2.731,35.015,15.445,46.379c0.369,0.33,0.745,0.654,1.126,0.972 c-2.359,0.411-4.689,0.983-6.969,1.714C7.582,68.775,3.634,70.61,0,72.945c8.85,9.963,23.134,14.771,36.208,12.186 c3.524-0.697,7.002-1.919,9.887-4.057c0.073-0.054,0.145-0.111,0.218-0.167c-0.987,5.662-2.714,11.136-5.104,16.221l7.509,2.806 c1.698-5.797,2.631-11.748,2.814-17.669c0.107,0.076,0.215,0.152,0.324,0.225c3.142,2.114,6.863,3.232,10.607,3.796 C76.352,88.379,91.161,82.628,100,71.71C96.061,69.427,91.816,67.684,87.422,66.495z"></path>
</g><g transform="translate(-100 12.610498495051974) rotate(0)">
  <animateTransform begin="-7.340844201942587s" repeatCount="indefinite" dur="10s" values="-100 12.610498495051974;1466 745.1214432192163" keyTimes="0;1" type="translate" attributeName="transform"></animateTransform>
  <animateTransform additive="sum" repeatCount="indefinite" dur="10s" values="0 50 50;318.60205444767695 50 50" begin="-7.340844201942587s" keyTimes="0;1" type="rotate" attributeName="transform"></animateTransform>
  <path transform="scale(0.9242862411791299)" fill="#ff9f32" d="M87.422,66.495c-2.009-0.544-4.049-0.97-6.107-1.283c10.617-11.116,15.747-27.37,13.129-42.549 c-5.236,1.77-10.223,4.252-14.824,7.313c-4.13,2.747-7.948,5.961-11.374,9.55C67.425,24.863,61.344,10.451,50.991,0 c-4.015,5.451-7.281,11.444-9.753,17.744c-3.579,9.122-5.501,18.893-5.669,28.691c-4.79-7.979-11.256-14.955-18.858-20.322 c-4.514-3.187-9.431-5.806-14.616-7.72c-3.361,16.717,2.731,35.015,15.445,46.379c0.369,0.33,0.745,0.654,1.126,0.972 c-2.359,0.411-4.689,0.983-6.969,1.714C7.582,68.775,3.634,70.61,0,72.945c8.85,9.963,23.134,14.771,36.208,12.186 c3.524-0.697,7.002-1.919,9.887-4.057c0.073-0.054,0.145-0.111,0.218-0.167c-0.987,5.662-2.714,11.136-5.104,16.221l7.509,2.806 c1.698-5.797,2.631-11.748,2.814-17.669c0.107,0.076,0.215,0.152,0.324,0.225c3.142,2.114,6.863,3.232,10.607,3.796 C76.352,88.379,91.161,82.628,100,71.71C96.061,69.427,91.816,67.684,87.422,66.495z"></path>
</g><g transform="translate(-100 269.84869047835434) rotate(0)">
  <animateTransform begin="-8.44689952801648s" repeatCount="indefinite" dur="10s" values="-100 269.84869047835434;1466 1099.9971165752186" keyTimes="0;1" type="translate" attributeName="transform"></animateTransform>
  <animateTransform additive="sum" repeatCount="indefinite" dur="10s" values="0 50 50;819.1810263667136 50 50" begin="-8.44689952801648s" keyTimes="0;1" type="rotate" attributeName="transform"></animateTransform>
  <path transform="scale(0.8501789614457999)" fill="#f86161" d="M87.422,66.495c-2.009-0.544-4.049-0.97-6.107-1.283c10.617-11.116,15.747-27.37,13.129-42.549 c-5.236,1.77-10.223,4.252-14.824,7.313c-4.13,2.747-7.948,5.961-11.374,9.55C67.425,24.863,61.344,10.451,50.991,0 c-4.015,5.451-7.281,11.444-9.753,17.744c-3.579,9.122-5.501,18.893-5.669,28.691c-4.79-7.979-11.256-14.955-18.858-20.322 c-4.514-3.187-9.431-5.806-14.616-7.72c-3.361,16.717,2.731,35.015,15.445,46.379c0.369,0.33,0.745,0.654,1.126,0.972 c-2.359,0.411-4.689,0.983-6.969,1.714C7.582,68.775,3.634,70.61,0,72.945c8.85,9.963,23.134,14.771,36.208,12.186 c3.524-0.697,7.002-1.919,9.887-4.057c0.073-0.054,0.145-0.111,0.218-0.167c-0.987,5.662-2.714,11.136-5.104,16.221l7.509,2.806 c1.698-5.797,2.631-11.748,2.814-17.669c0.107,0.076,0.215,0.152,0.324,0.225c3.142,2.114,6.863,3.232,10.607,3.796 C76.352,88.379,91.161,82.628,100,71.71C96.061,69.427,91.816,67.684,87.422,66.495z"></path>
</g><g transform="translate(1085.5421481819894 -100) rotate(0)">
  <animateTransform begin="-6.895204783362603s" repeatCount="indefinite" dur="10s" values="1085.5421481819894 -100;1466 609.6038925195946" keyTimes="0;1" type="translate" attributeName="transform"></animateTransform>
  <animateTransform additive="sum" repeatCount="indefinite" dur="10s" values="0 50 50;956.2756378945957 50 50" begin="-6.895204783362603s" keyTimes="0;1" type="rotate" attributeName="transform"></animateTransform>
  <path transform="scale(1.0589128547306348)" fill="#f86161" d="M87.422,66.495c-2.009-0.544-4.049-0.97-6.107-1.283c10.617-11.116,15.747-27.37,13.129-42.549 c-5.236,1.77-10.223,4.252-14.824,7.313c-4.13,2.747-7.948,5.961-11.374,9.55C67.425,24.863,61.344,10.451,50.991,0 c-4.015,5.451-7.281,11.444-9.753,17.744c-3.579,9.122-5.501,18.893-5.669,28.691c-4.79-7.979-11.256-14.955-18.858-20.322 c-4.514-3.187-9.431-5.806-14.616-7.72c-3.361,16.717,2.731,35.015,15.445,46.379c0.369,0.33,0.745,0.654,1.126,0.972 c-2.359,0.411-4.689,0.983-6.969,1.714C7.582,68.775,3.634,70.61,0,72.945c8.85,9.963,23.134,14.771,36.208,12.186 c3.524-0.697,7.002-1.919,9.887-4.057c0.073-0.054,0.145-0.111,0.218-0.167c-0.987,5.662-2.714,11.136-5.104,16.221l7.509,2.806 c1.698-5.797,2.631-11.748,2.814-17.669c0.107,0.076,0.215,0.152,0.324,0.225c3.142,2.114,6.863,3.232,10.607,3.796 C76.352,88.379,91.161,82.628,100,71.71C96.061,69.427,91.816,67.684,87.422,66.495z"></path>
</g><g transform="translate(538.233509045873 -100) rotate(0)">
  <animateTransform begin="-3.065041924679253s" repeatCount="indefinite" dur="10s" values="538.233509045873 -100;1352.3185670726907 707" keyTimes="0;1" type="translate" attributeName="transform"></animateTransform>
  <animateTransform additive="sum" repeatCount="indefinite" dur="10s" values="0 50 50;43.764811943122766 50 50" begin="-3.065041924679253s" keyTimes="0;1" type="rotate" attributeName="transform"></animateTransform>
  <path transform="scale(0.528912356394814)" fill="#ff9f32" d="M87.422,66.495c-2.009-0.544-4.049-0.97-6.107-1.283c10.617-11.116,15.747-27.37,13.129-42.549 c-5.236,1.77-10.223,4.252-14.824,7.313c-4.13,2.747-7.948,5.961-11.374,9.55C67.425,24.863,61.344,10.451,50.991,0 c-4.015,5.451-7.281,11.444-9.753,17.744c-3.579,9.122-5.501,18.893-5.669,28.691c-4.79-7.979-11.256-14.955-18.858-20.322 c-4.514-3.187-9.431-5.806-14.616-7.72c-3.361,16.717,2.731,35.015,15.445,46.379c0.369,0.33,0.745,0.654,1.126,0.972 c-2.359,0.411-4.689,0.983-6.969,1.714C7.582,68.775,3.634,70.61,0,72.945c8.85,9.963,23.134,14.771,36.208,12.186 c3.524-0.697,7.002-1.919,9.887-4.057c0.073-0.054,0.145-0.111,0.218-0.167c-0.987,5.662-2.714,11.136-5.104,16.221l7.509,2.806 c1.698-5.797,2.631-11.748,2.814-17.669c0.107,0.076,0.215,0.152,0.324,0.225c3.142,2.114,6.863,3.232,10.607,3.796 C76.352,88.379,91.161,82.628,100,71.71C96.061,69.427,91.816,67.684,87.422,66.495z"></path>
</g><g transform="translate(-100 137.92350685952098) rotate(0)">
  <animateTransform begin="-7.254177112894854s" repeatCount="indefinite" dur="10s" values="-100 137.92350685952098;856.0495461248787 707" keyTimes="0;1" type="translate" attributeName="transform"></animateTransform>
  <animateTransform additive="sum" repeatCount="indefinite" dur="10s" values="0 50 50;107.39772416414321 50 50" begin="-7.254177112894854s" keyTimes="0;1" type="rotate" attributeName="transform"></animateTransform>
  <path transform="scale(0.7834071134809615)" fill="#ffc46c" d="M87.422,66.495c-2.009-0.544-4.049-0.97-6.107-1.283c10.617-11.116,15.747-27.37,13.129-42.549 c-5.236,1.77-10.223,4.252-14.824,7.313c-4.13,2.747-7.948,5.961-11.374,9.55C67.425,24.863,61.344,10.451,50.991,0 c-4.015,5.451-7.281,11.444-9.753,17.744c-3.579,9.122-5.501,18.893-5.669,28.691c-4.79-7.979-11.256-14.955-18.858-20.322 c-4.514-3.187-9.431-5.806-14.616-7.72c-3.361,16.717,2.731,35.015,15.445,46.379c0.369,0.33,0.745,0.654,1.126,0.972 c-2.359,0.411-4.689,0.983-6.969,1.714C7.582,68.775,3.634,70.61,0,72.945c8.85,9.963,23.134,14.771,36.208,12.186 c3.524-0.697,7.002-1.919,9.887-4.057c0.073-0.054,0.145-0.111,0.218-0.167c-0.987,5.662-2.714,11.136-5.104,16.221l7.509,2.806 c1.698-5.797,2.631-11.748,2.814-17.669c0.107,0.076,0.215,0.152,0.324,0.225c3.142,2.114,6.863,3.232,10.607,3.796 C76.352,88.379,91.161,82.628,100,71.71C96.061,69.427,91.816,67.684,87.422,66.495z"></path>
</g><g transform="translate(-100 109.02801034898062) rotate(0)">
  <animateTransform begin="-4.528555816430877s" repeatCount="indefinite" dur="10s" values="-100 109.02801034898062;1693.7092130641877 707" keyTimes="0;1" type="translate" attributeName="transform"></animateTransform>
  <animateTransform additive="sum" repeatCount="indefinite" dur="10s" values="0 50 50;643.8924799862305 50 50" begin="-4.528555816430877s" keyTimes="0;1" type="rotate" attributeName="transform"></animateTransform>
  <path transform="scale(0.67312520374801)" fill="#ffc46c" d="M87.422,66.495c-2.009-0.544-4.049-0.97-6.107-1.283c10.617-11.116,15.747-27.37,13.129-42.549 c-5.236,1.77-10.223,4.252-14.824,7.313c-4.13,2.747-7.948,5.961-11.374,9.55C67.425,24.863,61.344,10.451,50.991,0 c-4.015,5.451-7.281,11.444-9.753,17.744c-3.579,9.122-5.501,18.893-5.669,28.691c-4.79-7.979-11.256-14.955-18.858-20.322 c-4.514-3.187-9.431-5.806-14.616-7.72c-3.361,16.717,2.731,35.015,15.445,46.379c0.369,0.33,0.745,0.654,1.126,0.972 c-2.359,0.411-4.689,0.983-6.969,1.714C7.582,68.775,3.634,70.61,0,72.945c8.85,9.963,23.134,14.771,36.208,12.186 c3.524-0.697,7.002-1.919,9.887-4.057c0.073-0.054,0.145-0.111,0.218-0.167c-0.987,5.662-2.714,11.136-5.104,16.221l7.509,2.806 c1.698-5.797,2.631-11.748,2.814-17.669c0.107,0.076,0.215,0.152,0.324,0.225c3.142,2.114,6.863,3.232,10.607,3.796 C76.352,88.379,91.161,82.628,100,71.71C96.061,69.427,91.816,67.684,87.422,66.495z"></path>
</g><g transform="translate(1287.5027756234708 -100) rotate(0)">
  <animateTransform begin="-0.951108385690025s" repeatCount="indefinite" dur="10s" values="1287.5027756234708 -100;1466 699.8591749934677" keyTimes="0;1" type="translate" attributeName="transform"></animateTransform>
  <animateTransform additive="sum" repeatCount="indefinite" dur="10s" values="0 50 50;57.30992381961151 50 50" begin="-0.951108385690025s" keyTimes="0;1" type="rotate" attributeName="transform"></animateTransform>
  <path transform="scale(0.7451834238069972)" fill="#f86161" d="M87.422,66.495c-2.009-0.544-4.049-0.97-6.107-1.283c10.617-11.116,15.747-27.37,13.129-42.549 c-5.236,1.77-10.223,4.252-14.824,7.313c-4.13,2.747-7.948,5.961-11.374,9.55C67.425,24.863,61.344,10.451,50.991,0 c-4.015,5.451-7.281,11.444-9.753,17.744c-3.579,9.122-5.501,18.893-5.669,28.691c-4.79-7.979-11.256-14.955-18.858-20.322 c-4.514-3.187-9.431-5.806-14.616-7.72c-3.361,16.717,2.731,35.015,15.445,46.379c0.369,0.33,0.745,0.654,1.126,0.972 c-2.359,0.411-4.689,0.983-6.969,1.714C7.582,68.775,3.634,70.61,0,72.945c8.85,9.963,23.134,14.771,36.208,12.186 c3.524-0.697,7.002-1.919,9.887-4.057c0.073-0.054,0.145-0.111,0.218-0.167c-0.987,5.662-2.714,11.136-5.104,16.221l7.509,2.806 c1.698-5.797,2.631-11.748,2.814-17.669c0.107,0.076,0.215,0.152,0.324,0.225c3.142,2.114,6.863,3.232,10.607,3.796 C76.352,88.379,91.161,82.628,100,71.71C96.061,69.427,91.816,67.684,87.422,66.495z"></path>
</g><g transform="translate(-100 43.662980415505466) rotate(0)">
  <animateTransform begin="-0.6498517358399224s" repeatCount="indefinite" dur="10s" values="-100 43.662980415505466;1926.4732246233957 707" keyTimes="0;1" type="translate" attributeName="transform"></animateTransform>
  <animateTransform additive="sum" repeatCount="indefinite" dur="10s" values="0 50 50;886.9452933410778 50 50" begin="-0.6498517358399224s" keyTimes="0;1" type="rotate" attributeName="transform"></animateTransform>
  <path transform="scale(0.7922197540277656)" fill="#ff9f32" d="M87.422,66.495c-2.009-0.544-4.049-0.97-6.107-1.283c10.617-11.116,15.747-27.37,13.129-42.549 c-5.236,1.77-10.223,4.252-14.824,7.313c-4.13,2.747-7.948,5.961-11.374,9.55C67.425,24.863,61.344,10.451,50.991,0 c-4.015,5.451-7.281,11.444-9.753,17.744c-3.579,9.122-5.501,18.893-5.669,28.691c-4.79-7.979-11.256-14.955-18.858-20.322 c-4.514-3.187-9.431-5.806-14.616-7.72c-3.361,16.717,2.731,35.015,15.445,46.379c0.369,0.33,0.745,0.654,1.126,0.972 c-2.359,0.411-4.689,0.983-6.969,1.714C7.582,68.775,3.634,70.61,0,72.945c8.85,9.963,23.134,14.771,36.208,12.186 c3.524-0.697,7.002-1.919,9.887-4.057c0.073-0.054,0.145-0.111,0.218-0.167c-0.987,5.662-2.714,11.136-5.104,16.221l7.509,2.806 c1.698-5.797,2.631-11.748,2.814-17.669c0.107,0.076,0.215,0.152,0.324,0.225c3.142,2.114,6.863,3.232,10.607,3.796 C76.352,88.379,91.161,82.628,100,71.71C96.061,69.427,91.816,67.684,87.422,66.495z"></path>
</g><g transform="translate(1108.5996457722613 -100) rotate(0)">
  <animateTransform begin="-7.585366768340885s" repeatCount="indefinite" dur="10s" values="1108.5996457722613 -100;2561.4265566067497 707" keyTimes="0;1" type="translate" attributeName="transform"></animateTransform>
  <animateTransform additive="sum" repeatCount="indefinite" dur="10s" values="0 50 50;640.2512504834722 50 50" begin="-7.585366768340885s" keyTimes="0;1" type="rotate" attributeName="transform"></animateTransform>
  <path transform="scale(0.9543637630857842)" fill="#ffc46c" d="M87.422,66.495c-2.009-0.544-4.049-0.97-6.107-1.283c10.617-11.116,15.747-27.37,13.129-42.549 c-5.236,1.77-10.223,4.252-14.824,7.313c-4.13,2.747-7.948,5.961-11.374,9.55C67.425,24.863,61.344,10.451,50.991,0 c-4.015,5.451-7.281,11.444-9.753,17.744c-3.579,9.122-5.501,18.893-5.669,28.691c-4.79-7.979-11.256-14.955-18.858-20.322 c-4.514-3.187-9.431-5.806-14.616-7.72c-3.361,16.717,2.731,35.015,15.445,46.379c0.369,0.33,0.745,0.654,1.126,0.972 c-2.359,0.411-4.689,0.983-6.969,1.714C7.582,68.775,3.634,70.61,0,72.945c8.85,9.963,23.134,14.771,36.208,12.186 c3.524-0.697,7.002-1.919,9.887-4.057c0.073-0.054,0.145-0.111,0.218-0.167c-0.987,5.662-2.714,11.136-5.104,16.221l7.509,2.806 c1.698-5.797,2.631-11.748,2.814-17.669c0.107,0.076,0.215,0.152,0.324,0.225c3.142,2.114,6.863,3.232,10.607,3.796 C76.352,88.379,91.161,82.628,100,71.71C96.061,69.427,91.816,67.684,87.422,66.495z"></path>
</g><g transform="translate(-100 212.75115967815276) rotate(0)">
  <animateTransform begin="-9.10644008387305s" repeatCount="indefinite" dur="10s" values="-100 212.75115967815276;1466 795.342053003118" keyTimes="0;1" type="translate" attributeName="transform"></animateTransform>
  <animateTransform additive="sum" repeatCount="indefinite" dur="10s" values="0 50 50;172.0264345445288 50 50" begin="-9.10644008387305s" keyTimes="0;1" type="rotate" attributeName="transform"></animateTransform>
  <path transform="scale(0.6042045752684599)" fill="#ff9f32" d="M87.422,66.495c-2.009-0.544-4.049-0.97-6.107-1.283c10.617-11.116,15.747-27.37,13.129-42.549 c-5.236,1.77-10.223,4.252-14.824,7.313c-4.13,2.747-7.948,5.961-11.374,9.55C67.425,24.863,61.344,10.451,50.991,0 c-4.015,5.451-7.281,11.444-9.753,17.744c-3.579,9.122-5.501,18.893-5.669,28.691c-4.79-7.979-11.256-14.955-18.858-20.322 c-4.514-3.187-9.431-5.806-14.616-7.72c-3.361,16.717,2.731,35.015,15.445,46.379c0.369,0.33,0.745,0.654,1.126,0.972 c-2.359,0.411-4.689,0.983-6.969,1.714C7.582,68.775,3.634,70.61,0,72.945c8.85,9.963,23.134,14.771,36.208,12.186 c3.524-0.697,7.002-1.919,9.887-4.057c0.073-0.054,0.145-0.111,0.218-0.167c-0.987,5.662-2.714,11.136-5.104,16.221l7.509,2.806 c1.698-5.797,2.631-11.748,2.814-17.669c0.107,0.076,0.215,0.152,0.324,0.225c3.142,2.114,6.863,3.232,10.607,3.796 C76.352,88.379,91.161,82.628,100,71.71C96.061,69.427,91.816,67.684,87.422,66.495z"></path>
</g><g transform="translate(-100 259.6658144450693) rotate(0)">
  <animateTransform begin="-4.639194502272918s" repeatCount="indefinite" dur="10s" values="-100 259.6658144450693;1024.5347997288907 707" keyTimes="0;1" type="translate" attributeName="transform"></animateTransform>
  <animateTransform additive="sum" repeatCount="indefinite" dur="10s" values="0 50 50;175.82347619706275 50 50" begin="-4.639194502272918s" keyTimes="0;1" type="rotate" attributeName="transform"></animateTransform>
  <path transform="scale(0.5009873159818229)" fill="#ff9f32" d="M87.422,66.495c-2.009-0.544-4.049-0.97-6.107-1.283c10.617-11.116,15.747-27.37,13.129-42.549 c-5.236,1.77-10.223,4.252-14.824,7.313c-4.13,2.747-7.948,5.961-11.374,9.55C67.425,24.863,61.344,10.451,50.991,0 c-4.015,5.451-7.281,11.444-9.753,17.744c-3.579,9.122-5.501,18.893-5.669,28.691c-4.79-7.979-11.256-14.955-18.858-20.322 c-4.514-3.187-9.431-5.806-14.616-7.72c-3.361,16.717,2.731,35.015,15.445,46.379c0.369,0.33,0.745,0.654,1.126,0.972 c-2.359,0.411-4.689,0.983-6.969,1.714C7.582,68.775,3.634,70.61,0,72.945c8.85,9.963,23.134,14.771,36.208,12.186 c3.524-0.697,7.002-1.919,9.887-4.057c0.073-0.054,0.145-0.111,0.218-0.167c-0.987,5.662-2.714,11.136-5.104,16.221l7.509,2.806 c1.698-5.797,2.631-11.748,2.814-17.669c0.107,0.076,0.215,0.152,0.324,0.225c3.142,2.114,6.863,3.232,10.607,3.796 C76.352,88.379,91.161,82.628,100,71.71C96.061,69.427,91.816,67.684,87.422,66.495z"></path>
</g><g transform="translate(123.91130978896773 -100) rotate(0)">
  <animateTransform begin="-2.2208256847455794s" repeatCount="indefinite" dur="10s" values="123.91130978896773 -100;1466 705.8282124547662" keyTimes="0;1" type="translate" attributeName="transform"></animateTransform>
  <animateTransform additive="sum" repeatCount="indefinite" dur="10s" values="0 50 50;679.6589335046086 50 50" begin="-2.2208256847455794s" keyTimes="0;1" type="rotate" attributeName="transform"></animateTransform>
  <path transform="scale(0.822033248904642)" fill="#ff9f32" d="M87.422,66.495c-2.009-0.544-4.049-0.97-6.107-1.283c10.617-11.116,15.747-27.37,13.129-42.549 c-5.236,1.77-10.223,4.252-14.824,7.313c-4.13,2.747-7.948,5.961-11.374,9.55C67.425,24.863,61.344,10.451,50.991,0 c-4.015,5.451-7.281,11.444-9.753,17.744c-3.579,9.122-5.501,18.893-5.669,28.691c-4.79-7.979-11.256-14.955-18.858-20.322 c-4.514-3.187-9.431-5.806-14.616-7.72c-3.361,16.717,2.731,35.015,15.445,46.379c0.369,0.33,0.745,0.654,1.126,0.972 c-2.359,0.411-4.689,0.983-6.969,1.714C7.582,68.775,3.634,70.61,0,72.945c8.85,9.963,23.134,14.771,36.208,12.186 c3.524-0.697,7.002-1.919,9.887-4.057c0.073-0.054,0.145-0.111,0.218-0.167c-0.987,5.662-2.714,11.136-5.104,16.221l7.509,2.806 c1.698-5.797,2.631-11.748,2.814-17.669c0.107,0.076,0.215,0.152,0.324,0.225c3.142,2.114,6.863,3.232,10.607,3.796 C76.352,88.379,91.161,82.628,100,71.71C96.061,69.427,91.816,67.684,87.422,66.495z"></path>
</g><g transform="translate(309.89435065905644 -100) rotate(0)">
  <animateTransform begin="-8.841743188689193s" repeatCount="indefinite" dur="10s" values="309.89435065905644 -100;1466 313.81477933318615" keyTimes="0;1" type="translate" attributeName="transform"></animateTransform>
  <animateTransform additive="sum" repeatCount="indefinite" dur="10s" values="0 50 50;668.0314114511284 50 50" begin="-8.841743188689193s" keyTimes="0;1" type="rotate" attributeName="transform"></animateTransform>
  <path transform="scale(0.6136610371079025)" fill="#ffc46c" d="M87.422,66.495c-2.009-0.544-4.049-0.97-6.107-1.283c10.617-11.116,15.747-27.37,13.129-42.549 c-5.236,1.77-10.223,4.252-14.824,7.313c-4.13,2.747-7.948,5.961-11.374,9.55C67.425,24.863,61.344,10.451,50.991,0 c-4.015,5.451-7.281,11.444-9.753,17.744c-3.579,9.122-5.501,18.893-5.669,28.691c-4.79-7.979-11.256-14.955-18.858-20.322 c-4.514-3.187-9.431-5.806-14.616-7.72c-3.361,16.717,2.731,35.015,15.445,46.379c0.369,0.33,0.745,0.654,1.126,0.972 c-2.359,0.411-4.689,0.983-6.969,1.714C7.582,68.775,3.634,70.61,0,72.945c8.85,9.963,23.134,14.771,36.208,12.186 c3.524-0.697,7.002-1.919,9.887-4.057c0.073-0.054,0.145-0.111,0.218-0.167c-0.987,5.662-2.714,11.136-5.104,16.221l7.509,2.806 c1.698-5.797,2.631-11.748,2.814-17.669c0.107,0.076,0.215,0.152,0.324,0.225c3.142,2.114,6.863,3.232,10.607,3.796 C76.352,88.379,91.161,82.628,100,71.71C96.061,69.427,91.816,67.684,87.422,66.495z"></path>
</g><g transform="translate(-100 198.3540356684057) rotate(0)">
  <animateTransform begin="-6.824986315153922s" repeatCount="indefinite" dur="10s" values="-100 198.3540356684057;1680.2281677484925 707" keyTimes="0;1" type="translate" attributeName="transform"></animateTransform>
  <animateTransform additive="sum" repeatCount="indefinite" dur="10s" values="0 50 50;459.94273547882756 50 50" begin="-6.824986315153922s" keyTimes="0;1" type="rotate" attributeName="transform"></animateTransform>
  <path transform="scale(0.7186708604225549)" fill="#ff956e" d="M87.422,66.495c-2.009-0.544-4.049-0.97-6.107-1.283c10.617-11.116,15.747-27.37,13.129-42.549 c-5.236,1.77-10.223,4.252-14.824,7.313c-4.13,2.747-7.948,5.961-11.374,9.55C67.425,24.863,61.344,10.451,50.991,0 c-4.015,5.451-7.281,11.444-9.753,17.744c-3.579,9.122-5.501,18.893-5.669,28.691c-4.79-7.979-11.256-14.955-18.858-20.322 c-4.514-3.187-9.431-5.806-14.616-7.72c-3.361,16.717,2.731,35.015,15.445,46.379c0.369,0.33,0.745,0.654,1.126,0.972 c-2.359,0.411-4.689,0.983-6.969,1.714C7.582,68.775,3.634,70.61,0,72.945c8.85,9.963,23.134,14.771,36.208,12.186 c3.524-0.697,7.002-1.919,9.887-4.057c0.073-0.054,0.145-0.111,0.218-0.167c-0.987,5.662-2.714,11.136-5.104,16.221l7.509,2.806 c1.698-5.797,2.631-11.748,2.814-17.669c0.107,0.076,0.215,0.152,0.324,0.225c3.142,2.114,6.863,3.232,10.607,3.796 C76.352,88.379,91.161,82.628,100,71.71C96.061,69.427,91.816,67.684,87.422,66.495z"></path>
</g><g transform="translate(1178.887099007458 -100) rotate(0)">
  <animateTransform begin="-4.600197522830011s" repeatCount="indefinite" dur="10s" values="1178.887099007458 -100;1466 472.10625951523264" keyTimes="0;1" type="translate" attributeName="transform"></animateTransform>
  <animateTransform additive="sum" repeatCount="indefinite" dur="10s" values="0 50 50;999.0229388275785 50 50" begin="-4.600197522830011s" keyTimes="0;1" type="rotate" attributeName="transform"></animateTransform>
  <path transform="scale(0.7378537161682677)" fill="#ffc46c" d="M87.422,66.495c-2.009-0.544-4.049-0.97-6.107-1.283c10.617-11.116,15.747-27.37,13.129-42.549 c-5.236,1.77-10.223,4.252-14.824,7.313c-4.13,2.747-7.948,5.961-11.374,9.55C67.425,24.863,61.344,10.451,50.991,0 c-4.015,5.451-7.281,11.444-9.753,17.744c-3.579,9.122-5.501,18.893-5.669,28.691c-4.79-7.979-11.256-14.955-18.858-20.322 c-4.514-3.187-9.431-5.806-14.616-7.72c-3.361,16.717,2.731,35.015,15.445,46.379c0.369,0.33,0.745,0.654,1.126,0.972 c-2.359,0.411-4.689,0.983-6.969,1.714C7.582,68.775,3.634,70.61,0,72.945c8.85,9.963,23.134,14.771,36.208,12.186 c3.524-0.697,7.002-1.919,9.887-4.057c0.073-0.054,0.145-0.111,0.218-0.167c-0.987,5.662-2.714,11.136-5.104,16.221l7.509,2.806 c1.698-5.797,2.631-11.748,2.814-17.669c0.107,0.076,0.215,0.152,0.324,0.225c3.142,2.114,6.863,3.232,10.607,3.796 C76.352,88.379,91.161,82.628,100,71.71C96.061,69.427,91.816,67.684,87.422,66.495z"></path>
</g><g transform="translate(45.85194320126866 -100) rotate(0)">
  <animateTransform begin="-1.864194105961663s" repeatCount="indefinite" dur="10s" values="45.85194320126866 -100;1012.0700259601074 707" keyTimes="0;1" type="translate" attributeName="transform"></animateTransform>
  <animateTransform additive="sum" repeatCount="indefinite" dur="10s" values="0 50 50;403.45652931741387 50 50" begin="-1.864194105961663s" keyTimes="0;1" type="rotate" attributeName="transform"></animateTransform>
  <path transform="scale(0.7747356023394978)" fill="#ffc46c" d="M87.422,66.495c-2.009-0.544-4.049-0.97-6.107-1.283c10.617-11.116,15.747-27.37,13.129-42.549 c-5.236,1.77-10.223,4.252-14.824,7.313c-4.13,2.747-7.948,5.961-11.374,9.55C67.425,24.863,61.344,10.451,50.991,0 c-4.015,5.451-7.281,11.444-9.753,17.744c-3.579,9.122-5.501,18.893-5.669,28.691c-4.79-7.979-11.256-14.955-18.858-20.322 c-4.514-3.187-9.431-5.806-14.616-7.72c-3.361,16.717,2.731,35.015,15.445,46.379c0.369,0.33,0.745,0.654,1.126,0.972 c-2.359,0.411-4.689,0.983-6.969,1.714C7.582,68.775,3.634,70.61,0,72.945c8.85,9.963,23.134,14.771,36.208,12.186 c3.524-0.697,7.002-1.919,9.887-4.057c0.073-0.054,0.145-0.111,0.218-0.167c-0.987,5.662-2.714,11.136-5.104,16.221l7.509,2.806 c1.698-5.797,2.631-11.748,2.814-17.669c0.107,0.076,0.215,0.152,0.324,0.225c3.142,2.114,6.863,3.232,10.607,3.796 C76.352,88.379,91.161,82.628,100,71.71C96.061,69.427,91.816,67.684,87.422,66.495z"></path>
</g><g transform="translate(-100 156.43921016261723) rotate(0)">
  <animateTransform begin="-1.6553783249512077s" repeatCount="indefinite" dur="10s" values="-100 156.43921016261723;1466 860.6393894355275" keyTimes="0;1" type="translate" attributeName="transform"></animateTransform>
  <animateTransform additive="sum" repeatCount="indefinite" dur="10s" values="0 50 50;417.00699543513997 50 50" begin="-1.6553783249512077s" keyTimes="0;1" type="rotate" attributeName="transform"></animateTransform>
  <path transform="scale(1.054651638932679)" fill="#ffc46c" d="M87.422,66.495c-2.009-0.544-4.049-0.97-6.107-1.283c10.617-11.116,15.747-27.37,13.129-42.549 c-5.236,1.77-10.223,4.252-14.824,7.313c-4.13,2.747-7.948,5.961-11.374,9.55C67.425,24.863,61.344,10.451,50.991,0 c-4.015,5.451-7.281,11.444-9.753,17.744c-3.579,9.122-5.501,18.893-5.669,28.691c-4.79-7.979-11.256-14.955-18.858-20.322 c-4.514-3.187-9.431-5.806-14.616-7.72c-3.361,16.717,2.731,35.015,15.445,46.379c0.369,0.33,0.745,0.654,1.126,0.972 c-2.359,0.411-4.689,0.983-6.969,1.714C7.582,68.775,3.634,70.61,0,72.945c8.85,9.963,23.134,14.771,36.208,12.186 c3.524-0.697,7.002-1.919,9.887-4.057c0.073-0.054,0.145-0.111,0.218-0.167c-0.987,5.662-2.714,11.136-5.104,16.221l7.509,2.806 c1.698-5.797,2.631-11.748,2.814-17.669c0.107,0.076,0.215,0.152,0.324,0.225c3.142,2.114,6.863,3.232,10.607,3.796 C76.352,88.379,91.161,82.628,100,71.71C96.061,69.427,91.816,67.684,87.422,66.495z"></path>
</g><g transform="translate(-100 301.32247223758264) rotate(0)">
  <animateTransform begin="-6.454436541884964s" repeatCount="indefinite" dur="10s" values="-100 301.32247223758264;1677.0193805914446 707" keyTimes="0;1" type="translate" attributeName="transform"></animateTransform>
  <animateTransform additive="sum" repeatCount="indefinite" dur="10s" values="0 50 50;186.0860862961735 50 50" begin="-6.454436541884964s" keyTimes="0;1" type="rotate" attributeName="transform"></animateTransform>
  <path transform="scale(0.7567218402998785)" fill="#ff9f32" d="M87.422,66.495c-2.009-0.544-4.049-0.97-6.107-1.283c10.617-11.116,15.747-27.37,13.129-42.549 c-5.236,1.77-10.223,4.252-14.824,7.313c-4.13,2.747-7.948,5.961-11.374,9.55C67.425,24.863,61.344,10.451,50.991,0 c-4.015,5.451-7.281,11.444-9.753,17.744c-3.579,9.122-5.501,18.893-5.669,28.691c-4.79-7.979-11.256-14.955-18.858-20.322 c-4.514-3.187-9.431-5.806-14.616-7.72c-3.361,16.717,2.731,35.015,15.445,46.379c0.369,0.33,0.745,0.654,1.126,0.972 c-2.359,0.411-4.689,0.983-6.969,1.714C7.582,68.775,3.634,70.61,0,72.945c8.85,9.963,23.134,14.771,36.208,12.186 c3.524-0.697,7.002-1.919,9.887-4.057c0.073-0.054,0.145-0.111,0.218-0.167c-0.987,5.662-2.714,11.136-5.104,16.221l7.509,2.806 c1.698-5.797,2.631-11.748,2.814-17.669c0.107,0.076,0.215,0.152,0.324,0.225c3.142,2.114,6.863,3.232,10.607,3.796 C76.352,88.379,91.161,82.628,100,71.71C96.061,69.427,91.816,67.684,87.422,66.495z"></path>
</g><g transform="translate(-100 209.75219144622056) rotate(0)">
  <animateTransform begin="-7.9806158509267s" repeatCount="indefinite" dur="10s" values="-100 209.75219144622056;1466 1009.9494155766168" keyTimes="0;1" type="translate" attributeName="transform"></animateTransform>
  <animateTransform additive="sum" repeatCount="indefinite" dur="10s" values="0 50 50;673.9667855540322 50 50" begin="-7.9806158509267s" keyTimes="0;1" type="rotate" attributeName="transform"></animateTransform>
  <path transform="scale(0.9927812469504179)" fill="#f86161" d="M87.422,66.495c-2.009-0.544-4.049-0.97-6.107-1.283c10.617-11.116,15.747-27.37,13.129-42.549 c-5.236,1.77-10.223,4.252-14.824,7.313c-4.13,2.747-7.948,5.961-11.374,9.55C67.425,24.863,61.344,10.451,50.991,0 c-4.015,5.451-7.281,11.444-9.753,17.744c-3.579,9.122-5.501,18.893-5.669,28.691c-4.79-7.979-11.256-14.955-18.858-20.322 c-4.514-3.187-9.431-5.806-14.616-7.72c-3.361,16.717,2.731,35.015,15.445,46.379c0.369,0.33,0.745,0.654,1.126,0.972 c-2.359,0.411-4.689,0.983-6.969,1.714C7.582,68.775,3.634,70.61,0,72.945c8.85,9.963,23.134,14.771,36.208,12.186 c3.524-0.697,7.002-1.919,9.887-4.057c0.073-0.054,0.145-0.111,0.218-0.167c-0.987,5.662-2.714,11.136-5.104,16.221l7.509,2.806 c1.698-5.797,2.631-11.748,2.814-17.669c0.107,0.076,0.215,0.152,0.324,0.225c3.142,2.114,6.863,3.232,10.607,3.796 C76.352,88.379,91.161,82.628,100,71.71C96.061,69.427,91.816,67.684,87.422,66.495z"></path>
</g><g transform="translate(-100 204.43158811985157) rotate(0)">
  <animateTransform begin="-7.04899732533769s" repeatCount="indefinite" dur="10s" values="-100 204.43158811985157;1466 640.1734048392068" keyTimes="0;1" type="translate" attributeName="transform"></animateTransform>
  <animateTransform additive="sum" repeatCount="indefinite" dur="10s" values="0 50 50;1068.810365942334 50 50" begin="-7.04899732533769s" keyTimes="0;1" type="rotate" attributeName="transform"></animateTransform>
  <path transform="scale(0.8629677624983847)" fill="#ff9f32" d="M87.422,66.495c-2.009-0.544-4.049-0.97-6.107-1.283c10.617-11.116,15.747-27.37,13.129-42.549 c-5.236,1.77-10.223,4.252-14.824,7.313c-4.13,2.747-7.948,5.961-11.374,9.55C67.425,24.863,61.344,10.451,50.991,0 c-4.015,5.451-7.281,11.444-9.753,17.744c-3.579,9.122-5.501,18.893-5.669,28.691c-4.79-7.979-11.256-14.955-18.858-20.322 c-4.514-3.187-9.431-5.806-14.616-7.72c-3.361,16.717,2.731,35.015,15.445,46.379c0.369,0.33,0.745,0.654,1.126,0.972 c-2.359,0.411-4.689,0.983-6.969,1.714C7.582,68.775,3.634,70.61,0,72.945c8.85,9.963,23.134,14.771,36.208,12.186 c3.524-0.697,7.002-1.919,9.887-4.057c0.073-0.054,0.145-0.111,0.218-0.167c-0.987,5.662-2.714,11.136-5.104,16.221l7.509,2.806 c1.698-5.797,2.631-11.748,2.814-17.669c0.107,0.076,0.215,0.152,0.324,0.225c3.142,2.114,6.863,3.232,10.607,3.796 C76.352,88.379,91.161,82.628,100,71.71C96.061,69.427,91.816,67.684,87.422,66.495z"></path>
</g><g transform="translate(-100 165.4710612933476) rotate(0)">
  <animateTransform begin="-7.033571442499126s" repeatCount="indefinite" dur="10s" values="-100 165.4710612933476;1466 778.8706442742631" keyTimes="0;1" type="translate" attributeName="transform"></animateTransform>
  <animateTransform additive="sum" repeatCount="indefinite" dur="10s" values="0 50 50;231.54519332961726 50 50" begin="-7.033571442499126s" keyTimes="0;1" type="rotate" attributeName="transform"></animateTransform>
  <path transform="scale(0.8263760195523719)" fill="#ff956e" d="M87.422,66.495c-2.009-0.544-4.049-0.97-6.107-1.283c10.617-11.116,15.747-27.37,13.129-42.549 c-5.236,1.77-10.223,4.252-14.824,7.313c-4.13,2.747-7.948,5.961-11.374,9.55C67.425,24.863,61.344,10.451,50.991,0 c-4.015,5.451-7.281,11.444-9.753,17.744c-3.579,9.122-5.501,18.893-5.669,28.691c-4.79-7.979-11.256-14.955-18.858-20.322 c-4.514-3.187-9.431-5.806-14.616-7.72c-3.361,16.717,2.731,35.015,15.445,46.379c0.369,0.33,0.745,0.654,1.126,0.972 c-2.359,0.411-4.689,0.983-6.969,1.714C7.582,68.775,3.634,70.61,0,72.945c8.85,9.963,23.134,14.771,36.208,12.186 c3.524-0.697,7.002-1.919,9.887-4.057c0.073-0.054,0.145-0.111,0.218-0.167c-0.987,5.662-2.714,11.136-5.104,16.221l7.509,2.806 c1.698-5.797,2.631-11.748,2.814-17.669c0.107,0.076,0.215,0.152,0.324,0.225c3.142,2.114,6.863,3.232,10.607,3.796 C76.352,88.379,91.161,82.628,100,71.71C96.061,69.427,91.816,67.684,87.422,66.495z"></path>
</g><g transform="translate(674.6421001543329 -100) rotate(0)">
  <animateTransform begin="-0.6315259653262474s" repeatCount="indefinite" dur="10s" values="674.6421001543329 -100;1466 252.9517652278634" keyTimes="0;1" type="translate" attributeName="transform"></animateTransform>
  <animateTransform additive="sum" repeatCount="indefinite" dur="10s" values="0 50 50;938.2252047344745 50 50" begin="-0.6315259653262474s" keyTimes="0;1" type="rotate" attributeName="transform"></animateTransform>
  <path transform="scale(0.5800431716959755)" fill="#ff956e" d="M87.422,66.495c-2.009-0.544-4.049-0.97-6.107-1.283c10.617-11.116,15.747-27.37,13.129-42.549 c-5.236,1.77-10.223,4.252-14.824,7.313c-4.13,2.747-7.948,5.961-11.374,9.55C67.425,24.863,61.344,10.451,50.991,0 c-4.015,5.451-7.281,11.444-9.753,17.744c-3.579,9.122-5.501,18.893-5.669,28.691c-4.79-7.979-11.256-14.955-18.858-20.322 c-4.514-3.187-9.431-5.806-14.616-7.72c-3.361,16.717,2.731,35.015,15.445,46.379c0.369,0.33,0.745,0.654,1.126,0.972 c-2.359,0.411-4.689,0.983-6.969,1.714C7.582,68.775,3.634,70.61,0,72.945c8.85,9.963,23.134,14.771,36.208,12.186 c3.524-0.697,7.002-1.919,9.887-4.057c0.073-0.054,0.145-0.111,0.218-0.167c-0.987,5.662-2.714,11.136-5.104,16.221l7.509,2.806 c1.698-5.797,2.631-11.748,2.814-17.669c0.107,0.076,0.215,0.152,0.324,0.225c3.142,2.114,6.863,3.232,10.607,3.796 C76.352,88.379,91.161,82.628,100,71.71C96.061,69.427,91.816,67.684,87.422,66.495z"></path>
</g><g></g></g><!-- [ldio] generated by https://loading.io --></svg>